# xmcd CD database file
#
# Track frame offsets:
#	183
#	56178
#	108750
#	158653
#
# Disc length: 2537 seconds
#
# Revision: 0
# Processed by: cddbd v1.4PL0 Copyright (c) Steve Scherf et al.
# Submitted via: CDex 1.50
#
DISCID=2909e704
DTITLE=Blakey, Powell, Shorter, And Morgan - Paris Jam Session
DYEAR=1961
DGENRE=Jazz
TTITLE0=Dance of the Infidels
TTITLE1=Bouncing with Bud
TTITLE2=The Midget
TTITLE3=Night in Tunisia
EXTD=YEAR: 1961
EXTT0=
EXTT1=
EXTT2=
EXTT3=
PLAYORDER=
